<?xml version="1.0" encoding="UTF-8"?>
<svg xmlns="http://www.w3.org/2000/svg" version="1.1" xmlns:xlink="http://www.w3.org/1999/xlink" viewBox="0 0 483.376 223.17">
  <defs>
    <linearGradient id="Unbenannter_Verlauf_45" data-name="Unbenannter Verlauf 45" x1="65.737" y1="214.266" x2="65.737" y2="8.904" gradientUnits="userSpaceOnUse">
      <stop offset="0" stop-color="#ffc900"/>
      <stop offset=".41" stop-color="#ffc900"/>
      <stop offset=".569" stop-color="#ffc900"/>
      <stop offset="1" stop-color="#ffc900"/>
    </linearGradient>
  </defs>
  <!-- Generator: Adobe Illustrator 28.7.3, SVG Export Plug-In . SVG Version: 1.2.0 Build 164)  -->
  <g>
    <g id="Ebene_1">
      <g>
        <path d="M122.876,214.266h-15c-31.464,0-52.698-23.945-69.76-43.186-7.721-8.707-15.014-16.93-20.626-19.741-5.675-2.842-9.204-9.321-8.872-16.293.332-6.972,4.455-12.991,10.367-15.137l73.89-21.821v-49.371l-54.279,19.154v18.079H8.598v-30.451c0-7.362,4.253-13.873,10.505-16.079L103.382,9.679c4.556-1.609,9.522-.682,13.371,2.493,3.85,3.175,6.124,8.221,6.124,13.586v79.596c0,7.312-4.196,8.79-10.389,11.037l-61.575,19.899c1.478,1.641,6.96,9.314,8.456,11,14.504,16.357,29.502,33.269,48.508,33.269h15v33.707Z" fill="url(#Unbenannter_Verlauf_45)"/>
        <text transform="translate(134.765 181.783)" fill="#565555" font-style="italic"><tspan font-family="BHTCaseMicro-BoldItalic, &apos;BHT Case Text&apos;" font-size="71" font-weight="700"><tspan x="0" y="0">CoRoLab</tspan></tspan><tspan font-family="BHTCaseText-Italic, &apos;BHT Case Text&apos;" font-size="18"><tspan x="0" y="21.6">Compliant Robotics Labratory Berlin</tspan></tspan></text>
        <path d="M23.597,73.769v-12.101l84.279-26.471v70.842l-84.279,27.228c22.622,10.084,44.801,54.707,84.279,54.707" fill="none" stroke="#9d9d9c" stroke-linecap="square" stroke-linejoin="round" stroke-width="30"/>
      </g>
    </g>
  </g>
</svg>